HIERARCHY
ROOT root
{
	OFFSET 0.000000 0.000000 0.000000
	CHANNELS 6 Xposition Yposition Zposition Zrotation Yrotation Xrotation
	JOINT lhip
	{
		OFFSET 0.058581 -0.082280 -0.017664
		CHANNELS 3 Zrotation Yrotation Xrotation
		JOINT lknee
		{
			OFFSET 0.043451 -0.386469 0.008037
			CHANNELS 3 Zrotation Yrotation Xrotation
			JOINT lankle
			{
				OFFSET -0.014790 -0.426874 -0.037428
				CHANNELS 3 Zrotation Yrotation Xrotation
				JOINT ltoe
				{
					OFFSET 0.041054 -0.060286 0.122042
					CHANNELS 3 Zrotation Yrotation Xrotation
					End Site
					{
						OFFSET 0.000000 0.000000 0.000000
					}
				}
			}
		}
	}
	JOINT rhip
	{
		OFFSET -0.060310 -0.090513 -0.013543
		CHANNELS 3 Zrotation Yrotation Xrotation
		JOINT rknee
		{
			OFFSET -0.043257 -0.383688 -0.004843
			CHANNELS 3 Zrotation Yrotation Xrotation
			JOINT rankle
			{
				OFFSET 0.019056 -0.420046 -0.034562
				CHANNELS 3 Zrotation Yrotation Xrotation
				JOINT rtoe
				{
					OFFSET -0.034840 -0.062106 0.130323
					CHANNELS 3 Zrotation Yrotation Xrotation
					End Site
					{
						OFFSET 0.000000 0.000000 0.000000
					}
				}
			}
		}
	}
	JOINT lowerback
	{
		OFFSET 0.004439 0.124404 -0.038385
		CHANNELS 3 Zrotation Yrotation Xrotation
		JOINT upperback
		{
			OFFSET 0.004488 0.137956 0.026820
			CHANNELS 3 Zrotation Yrotation Xrotation
			JOINT chest
			{
				OFFSET -0.002265 0.056032 0.002855
				CHANNELS 3 Zrotation Yrotation Xrotation
				JOINT lowerneck
				{
					OFFSET -0.013390 0.211636 -0.033468
					CHANNELS 3 Zrotation Yrotation Xrotation
					JOINT upperneck
					{
						OFFSET 0.010113 0.088937 0.050410
						CHANNELS 3 Zrotation Yrotation Xrotation
						End Site
						{
							OFFSET 0.000000 0.000000 0.000000
						}
					}
				}
				JOINT lclavicle
				{
					OFFSET 0.071702 0.114000 -0.018898
					CHANNELS 3 Zrotation Yrotation Xrotation
					JOINT lshoulder
					{
						OFFSET 0.122921 0.045205 -0.019046
						CHANNELS 3 Zrotation Yrotation Xrotation
						JOINT lelbow
						{
							OFFSET 0.255332 -0.015649 -0.022946
							CHANNELS 3 Zrotation Yrotation Xrotation
							JOINT lwrist
							{
								OFFSET 0.265709 0.012698 -0.007375
								CHANNELS 3 Zrotation Yrotation Xrotation
								End Site
								{
									OFFSET 0.000000 0.000000 0.000000
								}
							}
						}
					}
				}
				JOINT rclavicle
				{
					OFFSET -0.082954 0.112472 -0.023707
					CHANNELS 3 Zrotation Yrotation Xrotation
					JOINT rshoulder
					{
						OFFSET -0.113228 0.046853 -0.008472
						CHANNELS 3 Zrotation Yrotation Xrotation
						JOINT relbow
						{
							OFFSET -0.260127 -0.014369 -0.031269
							CHANNELS 3 Zrotation Yrotation Xrotation
							JOINT rwrist
							{
								OFFSET -0.269108 0.006794 -0.006027
								CHANNELS 3 Zrotation Yrotation Xrotation
								End Site
								{
									OFFSET 0.000000 0.000000 0.000000
								}
							}
						}
					}
				}
			}
		}
	}
}
MOTION
Frames: 11
Frame Time: 0.033333
2.310034 0.689608 0.999639 -73.366041 -0.386842 86.322875 0.643191 -2.898486 1.965474 -1.536284 -15.282128 2.694899 0.183376 7.019953 -6.994508 0.000000 -0.000000 0.000000 -0.381798 -4.869754 4.294674 -2.614623 -1.528990 6.592365 1.607022 -11.445225 -11.864499 0.000000 -0.000000 0.000000 0.651253 4.604747 4.734097 -0.188695 -1.713628 4.590352 0.127407 2.343199 -4.702287 -0.683099 19.843105 -0.786169 1.220540 20.482003 7.825644 -28.503012 -7.920450 0.875330 -52.658977 -6.681034 17.153918 -2.961834 -17.626477 16.888610 -5.509310 -6.768714 5.783996 27.214279 10.062578 9.736504 53.469562 2.528547 19.156342 -2.441257 24.052511 8.613534 4.050451 6.457631 1.635058 
2.309178 0.689054 0.999008 -73.583654 -1.119720 86.425309 -0.352501 -2.775614 2.431659 -0.953553 -15.006043 1.727261 0.696836 7.223846 -6.835600 0.000000 -0.000000 0.000000 -1.349404 -5.036954 4.577877 -2.547993 -2.415767 5.858960 2.072398 -10.621584 -11.727592 0.000000 -0.000000 0.000000 0.414319 4.479163 4.078119 -0.870017 -1.081307 5.165338 -0.306255 2.219025 -4.784757 -0.112042 19.965296 -0.510190 1.441151 20.099488 7.687151 -29.581009 -7.964887 1.816782 -50.681365 -5.756435 15.654166 -2.982496 -19.680528 15.386764 -5.108162 -6.829229 6.334280 28.399417 10.520787 10.684286 53.019119 2.912785 18.282537 -2.668036 24.112677 7.858683 2.377803 6.335099 3.161014 
2.311838 0.691300 0.996803 -72.785303 -1.332535 86.960969 -0.360235 -3.433341 0.933657 -1.349259 -14.755112 2.674027 0.359793 6.880705 -6.801488 0.000000 -0.000000 0.000000 -1.354861 -4.899866 3.654697 -2.690436 -3.200252 6.125554 2.118175 -11.156662 -11.823135 0.000000 -0.000000 0.000000 0.146963 4.153768 4.313605 -0.999418 -1.121188 3.778052 -0.352242 2.140176 -3.916670 0.456881 19.885313 -0.490674 1.338170 19.394144 7.839327 -29.425346 -7.536032 1.972699 -50.780417 -5.484143 15.796086 -2.753751 -21.062378 16.162827 -1.637793 -7.806429 6.173996 28.403090 10.067990 10.322471 53.392782 3.164921 18.161362 -3.574083 24.944822 7.992567 -2.493456 5.917846 4.021581 
2.312864 0.691648 0.996562 -72.081219 -1.415049 87.105704 -0.436495 -3.642411 0.329947 -1.544771 -14.868396 3.226320 0.228226 6.600142 -6.649025 0.000000 -0.000000 0.000000 -1.450512 -4.896508 3.525332 -2.671739 -3.539400 6.161283 2.056642 -11.571623 -11.598793 0.000000 -0.000000 0.000000 0.217010 3.994187 4.145949 -0.910293 -1.313568 3.789826 -0.520568 2.109512 -3.698740 0.617651 19.462179 -0.156654 1.082273 18.430941 7.492295 -29.375531 -7.346191 1.965295 -50.867503 -5.525686 15.827327 -2.643891 -21.317922 16.665813 -0.932826 -7.692465 7.134514 28.495301 9.603400 10.039639 53.052165 3.002385 18.122542 -4.487835 26.238756 8.943162 -5.967512 5.374831 7.305490 
2.313118 0.691751 0.996755 -71.882421 -1.506474 86.996829 -0.606076 -3.632664 0.467008 -1.408697 -14.995632 3.109703 0.165736 6.625344 -6.655397 0.000000 -0.000000 0.000000 -1.575976 -4.926676 3.663864 -2.675107 -3.542374 6.205462 1.985412 -11.637938 -11.735471 0.000000 -0.000000 0.000000 0.169130 3.934649 4.211442 -0.863925 -1.384677 3.968921 -0.545109 2.112162 -3.742415 0.598668 19.007319 -0.041721 0.977989 18.085894 7.363158 -29.466180 -7.215604 1.817879 -50.788268 -5.286994 15.894801 -2.399501 -21.727435 16.555531 0.202434 -7.797941 7.516168 28.588805 9.599249 9.838792 52.581605 2.893008 18.183301 -4.370444 26.761310 9.324165 -7.106557 5.784639 8.297923 
2.312992 0.692183 0.996660 -71.475899 -1.520015 87.174746 -0.488941 -3.663355 0.074039 -1.557164 -15.073488 3.356076 0.078888 6.407285 -6.634179 0.000000 -0.000000 0.000000 -1.617639 -5.104223 3.602713 -2.607139 -3.660809 6.048210 2.041767 -11.658786 -11.572636 0.000000 -0.000000 0.000000 0.047144 3.852162 3.758621 -0.726414 -1.517577 4.207463 -0.573803 1.962959 -3.558037 0.723017 18.434417 0.050454 0.899842 17.220939 7.379122 -29.370496 -6.976840 1.678495 -50.767472 -5.188991 15.968744 -2.108907 -22.236079 16.350999 1.705837 -7.731623 7.722490 28.653649 9.334513 9.488952 52.070200 3.088388 18.101753 -4.070543 26.975048 9.611741 -8.456174 6.016508 9.235456 
2.313079 0.692557 0.996492 -71.432544 -1.621652 87.252265 -0.524923 -3.709147 -0.065700 -1.658915 -15.110463 3.412579 -0.160897 6.280726 -6.523075 0.000000 -0.000000 0.000000 -1.712625 -5.129391 3.447355 -2.649518 -3.718475 6.148890 2.101285 -11.624683 -11.598388 0.000000 -0.000000 0.000000 -0.091161 3.855513 3.665222 -0.662934 -1.477736 4.379364 -0.580101 1.911742 -3.593356 0.640835 17.551331 0.093076 0.955411 16.064601 7.316857 -29.311203 -6.840681 1.534340 -50.702391 -5.341241 15.725266 -2.005856 -22.361233 15.301668 2.280875 -8.067269 7.144305 28.782536 9.339462 9.291311 51.723112 3.032062 18.095237 -3.936310 26.711958 9.727498 -8.666993 6.374993 9.835956 
2.313802 0.692929 0.996651 -71.501260 -1.597654 87.320995 -0.508928 -3.586678 -0.205931 -1.561787 -15.051760 3.480186 -0.194142 6.342788 -6.521358 0.000000 -0.000000 0.000000 -1.670258 -5.055629 3.319961 -2.647791 -3.610094 6.165768 1.916783 -11.644777 -11.447154 0.000000 -0.000000 0.000000 0.060976 3.895684 3.830080 -0.582761 -1.437373 4.272441 -0.802013 2.045367 -3.557474 0.148688 15.953317 -0.226871 0.950342 14.304318 7.216229 -29.387734 -6.738909 1.156168 -50.516572 -5.388852 16.392334 -1.842234 -22.249448 15.589534 2.114210 -8.001677 8.125890 29.005556 9.151080 8.723750 51.281547 2.569897 17.997638 -4.028318 26.785735 9.284943 -8.183819 6.486266 9.544757 
2.313962 0.693280 0.996775 -71.562208 -1.644762 87.402670 -0.480136 -3.539638 -0.341319 -1.641146 -14.823095 3.577586 -0.152526 6.213960 -6.536653 0.000000 -0.000000 0.000000 -1.713709 -4.952655 3.299893 -2.666398 -3.621363 6.013145 1.943333 -11.614398 -11.286454 0.000000 -0.000000 0.000000 0.007973 3.935513 3.710099 -0.511208 -1.449264 4.265266 -0.912213 2.026425 -3.490051 -0.078734 14.486451 0.620125 1.227074 12.493404 6.603513 -29.344604 -6.663086 1.033807 -50.466887 -5.620889 16.273351 -1.867171 -21.700668 14.502215 0.045666 -7.598986 7.784190 28.817633 9.089631 8.354044 51.423145 2.111290 18.027120 -4.178304 26.908901 9.082404 -6.659978 6.240259 9.196661 
2.313977 0.693637 0.996845 -71.857337 -1.646439 87.509731 -0.516125 -3.502513 -0.228494 -1.442116 -14.808827 3.238238 -0.157490 6.365079 -6.537165 0.000000 -0.000000 0.000000 -1.619405 -4.830714 3.084196 -2.760162 -3.369151 6.094562 1.980923 -11.723003 -11.258302 0.000000 -0.000000 0.000000 -0.154156 3.941267 3.403987 -0.306230 -1.523922 4.530561 -1.093015 1.962003 -3.441581 -0.278318 12.103673 1.233919 1.351286 10.050582 5.995638 -28.923163 -6.228483 0.550393 -50.968821 -5.683429 17.032416 -2.029085 -21.437868 14.567190 -1.514977 -7.334542 8.222167 28.486951 8.887481 7.449158 51.632427 1.877151 18.211191 -3.901940 26.624297 8.980940 -4.431730 6.049240 8.433666 
2.313858 0.693942 0.996688 -72.202664 -1.599393 87.610361 -0.385019 -3.435746 -0.423884 -1.580248 -14.512450 3.484356 -0.136698 6.388448 -6.579997 0.000000 -0.000000 0.000000 -1.551938 -4.630081 2.818774 -2.766178 -3.246066 6.296386 1.875565 -11.718372 -11.365615 0.000000 -0.000000 0.000000 -0.279788 3.996808 3.163510 -0.119051 -1.473849 4.606444 -1.160203 1.723497 -3.270400 -0.268169 10.245214 2.140457 1.580640 7.992308 5.269074 -28.860068 -6.012312 0.312647 -51.096393 -5.910909 17.418025 -2.049027 -21.104844 14.566494 -2.483765 -7.405326 8.795253 28.191316 8.680948 6.667089 51.819298 1.666098 18.186064 -3.868588 26.479853 8.725639 -3.597781 6.164086 7.816629 
